<svg id="Layer_1" data-name="Layer 1" xmlns="http://www.w3.org/2000/svg" viewBox="0 0 593.32 137.24"><defs><style>.cls-2{fill:#fff}.cls-3{fill:#0ba3e3}</style></defs><path d="M74.91 359.54c4.93-.11 9.75-.12 14.45-1.53 5.08-1.53 9.52-4 12.22-8.81 3.52-6.24 1-11.25-6.17-12.11-4-.49-7.94.44-11.78 1.57A69.71 69.71 0 0163 341.85c-6.53-.11-12.52-1.63-16.72-7.33 1.47-1.1 3.15-1.15 4.7-1.61 10.58-3.18 15.12-12.32 7.73-22.48a20.59 20.59 0 00-10.17-7.76c-5.68-1.88-9.54-.91-13.35 3.68a32.88 32.88 0 01-5.07 5.48c-6.69 5.17-12.73 5.41-19.7.6A33 33 0 014 306.38a8.94 8.94 0 014 .17c3.46.55 6.92.84 10.38-.21 5.22-1.58 8.19-4.94 8.65-10.33.23-2.64.06-5.32.06-8 0-11.87 6.12-16.07 17.13-11.65a63 63 0 0113.35 7.72c2.82 2 5.57 4.19 9 5.31 6.37 2.08 12.08-.46 14.66-6.65A19.85 19.85 0 0080.12 265c-2.75-5.09-7.62-6.63-13-7-4.31-.28-8.47.8-13 1.9a32.42 32.42 0 016-12.35c4.4-5.83 10.37-6.71 17-5a45.51 45.51 0 0110.12 4.16 50.51 50.51 0 0013 5 12.12 12.12 0 009.17-1.19c3.69-2.26 4.1-5.15.89-8.06-3.48-3.16-7.67-5.26-11.83-7.36l-2.8-1.45c20.84-5.53 40.74 4.14 51.56 22.78a89 89 0 0111 33.86 95.8 95.8 0 01-4.36 43.71 60.61 60.61 0 01-9.87 18.42c-10.17 12.73-23.45 18-39.58 16.71-10.58-.87-20.2-4.69-29.51-9.59zM143.13 300a64.56 64.56 0 01-9.62 34 25.53 25.53 0 00-1.94 3.45 2.69 2.69 0 001.23 3.44 2.92 2.92 0 003.7 0 10.77 10.77 0 001.9-2.29 70.17 70.17 0 00.6-75.36c-.26-.42-.52-.85-.81-1.25-1.17-1.66-2.68-2.66-4.64-1.51s-2 2.9-1 4.75c.63 1.16 1.34 2.29 2 3.45a63.23 63.23 0 018.58 31.32zm-14 .23c.23 9.59-2.62 18.32-7.45 26.48-.59 1-1.5 1.82-1.65 3a3.13 3.13 0 001.57 3.38 2.85 2.85 0 003.68-.29 11.33 11.33 0 001.77-2.38c11.08-18.43 11.65-37.27 2.14-56.47a27.86 27.86 0 00-3.21-5 3.13 3.13 0 00-4.5-.42 2.69 2.69 0 00-.75 3.94c.69 1.14 1.34 2.3 2 3.46a48.23 48.23 0 016.42 24.28zm-8 1c0-8.43-1.69-14.9-5.18-21.06a19.39 19.39 0 00-2.21-3.3 2.9 2.9 0 00-4.06-.4 3 3 0 00-1.22 3.92c.43.9 1.07 1.69 1.55 2.56 6.42 11.73 6.24 23.44-.09 35.13-.48.88-1.16 1.65-1.56 2.55-.69 1.51-.55 3 .9 4a3.11 3.11 0 004.12-.31 14.53 14.53 0 002.37-3.19c3.6-6.54 5.67-13.46 5.38-19.92z" transform="translate(-3.99 -232.08)" fill="#e5047f"/><path class="cls-2" d="M178.67 255.22h13.08v23.93c1.54.84 2-.44 2.67-.92 13.62-9.33 31.28-3.69 36.54 12 3.79 11.29 2.67 21.92-5.84 31.1-7.94 8.56-21.59 10.2-30.76 3-.51-.4-1.05-.76-2.08-1.5-.18 1.67-.33 3-.5 4.52h-13.11zm40.75 46.16c.06-6.63-3.32-12.18-8.68-14.38-8.66-3.55-20.46 2.05-19.36 15.8.57 7.17 4.86 12.05 10.76 13.3 9.45 2.01 17.2-4.6 17.28-14.72zM277.69 279.76c.1-1.74.18-3.1.27-4.61h12.9v52.22h-12.33c-1.13-1.36.06-3.05-1.15-4.48-3 2.08-5.9 4.22-9.49 5.14a24.23 24.23 0 01-28.08-13.62 30.14 30.14 0 01.54-27.83c7.66-14.63 25-15.91 34.52-8.66.78.59 1.64 1.08 2.82 1.84zm-13.4 6.24c-8.06 0-13.94 6.17-14.1 14.81s6 15.54 14 15.59c8.3.05 14.14-6.18 14.26-15.19S272.64 286 264.29 286z" transform="translate(-3.99 -232.08)"/><path class="cls-3" d="M532.72 327.73a15.59 15.59 0 01-6.8.15c-1-1.3-.61-2.68-.62-4-.09-9.16-.13-18.32-.19-27.47v-1c-.14-8.15-2.86-12-9-13.68-5.94-1.62-13.89 2.38-16.65 8.13a27 27 0 00-2.46 11.62c-.06 8 0 16-.07 24 0 .65-.08 1.3-.14 2.16-2.09.92-4.18.47-6.19.4-1.18-1.67-.63-3.38-.67-5-.28-9.8.43-19.61-.6-29.41-.52-4.95-1.89-9.29-6.93-11.12-5.21-1.9-10.08-.95-14.45 2.64-5.59 4.6-6.51 11-6.81 17.55s0 13.32-.09 20c0 1.63.31 3.3-.42 5.27a23.52 23.52 0 01-6.34 0v-51.71a24.23 24.23 0 016.7-.15v7.81c11.19-13.39 28.36-12.23 34.56 2a60.65 60.65 0 014.45-5.32c5-4.64 10.65-6.88 17.68-5.86 7.36 1.07 13.5 7.65 14.37 16.24.83 8.14.54 16.28.64 24.42.07 3.98.03 7.96.03 12.33zM542.51 276.19a15.8 15.8 0 016.67 0c1.23 2.42-.07 5.05.89 7.41 13.51-11.84 27.64-12.37 39-1.48 10.23 9.76 11 26.8 1.57 38.11a26 26 0 01-20.12 9.48c-7.86.19-14.39-3.28-20.58-9.26v26.17c-2.39.9-4.47.54-7 .4-.42-23.61.36-47.02-.43-70.83zm47.59 25.67c-.06-11.37-9.38-20.95-20.58-20.66-11.95.32-20.41 8.9-20.25 21.38.19 13.92 11 20.4 20.67 20.39 10.99.03 20.22-9.71 20.16-21.11zM443.41 328.22a12 12 0 01-6.22.22c-1.94-2.15-.05-4.94-1.55-7.4-6.23 6.23-13.58 9.61-22.41 8.73a26.79 26.79 0 01-17.68-9.17c-9.46-10.48-9.06-28.81 2.23-39.12 8.81-8.06 26.28-10.62 38.07 2.13 1.11-2.34-.23-4.94.89-7.33a18.61 18.61 0 016.67-.06zm-26.87-46.68A20.29 20.29 0 00396 302.1c0 11.47 9.09 20.93 20.21 21A20.38 20.38 0 00437 302.73c0-10.59-7.23-21.12-20.46-21.19zM379.77 314.11l5.23 3.39a18.11 18.11 0 01-7.51 7.76c-10.23 6-20.92 6.51-31.39 1.14-9.87-5.07-14.69-13.49-14.29-24.83.4-10.85 5.37-18.9 14.93-23.54 10.92-5.3 21.9-4.59 32.25 2.06a15.66 15.66 0 015.95 6.82 18.4 18.4 0 01-4.84 3.15c-1.68-.44-2.4-1.87-3.47-2.84-8.87-8-23.41-7.93-31.74.36-6.15 6.13-7.65 13.6-4.79 21.59 2.9 8.22 9.14 12.91 17.9 13.83 7.7.82 14.5-1.17 19.85-7.1.53-.59 1.15-1.1 1.92-1.79z" transform="translate(-3.99 -232.08)"/><path class="cls-2" d="M312.57 327.36h-13.25v-52.12h11.05c.91 1.12.16 2.4.69 3.44a.85.85 0 001.17-.31c4-4.68 8.88-5.92 14.91-3.63-.56 4-2.45 7.36-3.43 10.83-.47.2-.78.48-1 .44-5.55-.9-7.45.25-9 5.63a34.2 34.2 0 00-1 9.87c-.15 8.49-.14 16.94-.14 25.85zM188.15 352.3a1.6 1.6 0 01.14.76v.62a1.63 1.63 0 01-.14.76.5.5 0 01-.46.24h-3.18v10.78c0 .42-.4.64-1.2.64h-.7c-.8 0-1.2-.22-1.2-.64v-10.78h-3.18a.48.48 0 01-.46-.24 1.51 1.51 0 01-.14-.76v-.62a1.49 1.49 0 01.14-.76.48.48 0 01.46-.24h9.46a.5.5 0 01.46.24zM208.73 352.66v12.8c0 .42-.4.64-1.2.64h-.7c-.8 0-1.2-.22-1.2-.64v-5.22h-5.4v5.22c0 .42-.4.64-1.2.64h-.7c-.8 0-1.2-.22-1.2-.64v-12.8c0-.43.4-.64 1.2-.64h.7c.8 0 1.2.21 1.2.64v4.94h5.4v-4.94c0-.43.4-.64 1.2-.64h.7c.8-.02 1.2.21 1.2.64zM227.07 352.3a1.6 1.6 0 01.14.76v.62a1.63 1.63 0 01-.14.76.5.5 0 01-.46.24h-5v2.9h4.5a.5.5 0 01.46.24 1.6 1.6 0 01.14.76v.62a1.63 1.63 0 01-.14.76.5.5 0 01-.46.24h-4.5v3.24h5.06a.5.5 0 01.46.24 1.6 1.6 0 01.14.76v.62a1.63 1.63 0 01-.14.76.5.5 0 01-.46.24h-7.34a.85.85 0 01-.61-.19.83.83 0 01-.19-.61v-12.4a.69.69 0 01.8-.8h7.32a.5.5 0 01.42.24zM259.83 352.66v12.8c0 .42-.4.64-1.2.64h-.76a2.57 2.57 0 01-.8-.11 1 1 0 01-.52-.43l-5.36-8.2v8.1c0 .42-.4.64-1.2.64h-.58c-.8 0-1.2-.22-1.2-.64v-12.8c0-.43.4-.64 1.2-.64h.86a2.34 2.34 0 01.8.11 1 1 0 01.52.43l4.72 7.28.54.82v-8c0-.43.4-.64 1.2-.64h.58c.8-.02 1.2.21 1.2.64zM278.17 352.3a1.6 1.6 0 01.14.76v.62a1.63 1.63 0 01-.14.76.5.5 0 01-.46.24h-5v2.9h4.5a.5.5 0 01.46.24 1.6 1.6 0 01.14.76v.62a1.63 1.63 0 01-.14.76.5.5 0 01-.46.24h-4.5v3.24h5.06a.5.5 0 01.46.24 1.6 1.6 0 01.14.76v.62a1.63 1.63 0 01-.14.76.5.5 0 01-.46.24h-7.34a.85.85 0 01-.61-.19.83.83 0 01-.19-.61v-12.4a.69.69 0 01.8-.8h7.32a.5.5 0 01.42.24zM298 352.4a1 1 0 01-.2.5l-3.8 5.9 4 6.42a1 1 0 01.18.5c0 .25-.42.38-1.26.38h-.78c-.66 0-1.06-.13-1.2-.38l-2.66-4.3-2.76 4.3a.74.74 0 01-.43.31 3.81 3.81 0 01-.79.07h-.76c-.84 0-1.26-.13-1.26-.38a1 1 0 01.2-.5l4.12-6.46-3.6-5.86a1.13 1.13 0 01-.2-.5c0-.12.1-.22.32-.28a3.29 3.29 0 011-.1h.82c.65 0 1 .12 1.2.38l2.28 3.72 2.4-3.72a.67.67 0 01.44-.31 3.13 3.13 0 01.74-.09h.78c.79 0 1.22.14 1.22.4zM316 352.3a1.6 1.6 0 01.14.76v.62a1.63 1.63 0 01-.14.76.5.5 0 01-.46.24h-3.18v10.78c0 .42-.4.64-1.2.64h-.7c-.8 0-1.2-.22-1.2-.64v-10.78h-3.18a.48.48 0 01-.46-.24 1.51 1.51 0 01-.14-.76v-.62a1.49 1.49 0 01.14-.76.48.48 0 01.46-.24h9.46a.5.5 0 01.46.24zM352.85 352.54v.3l-3.26 12.84a.55.55 0 01-.36.31 2.26 2.26 0 01-.74.11H347a2.28 2.28 0 01-.75-.11c-.21-.08-.33-.18-.35-.31l-1.64-6.92-.32-1.36-.34 1.36-1.7 6.92a.55.55 0 01-.36.31 2.26 2.26 0 01-.74.11h-1.44c-.67 0-1-.14-1.1-.42l-3.16-12.84a.87.87 0 010-.3c0-.35.41-.52 1.24-.52h.52c.8 0 1.24.2 1.34.62l1.5 6.44.4 1.82c0 .22.11.58.22 1.06a13.54 13.54 0 01.39-1.81l.29-1.07 1.64-6.64a.46.46 0 01.33-.33 2.52 2.52 0 01.77-.09h.76a2.57 2.57 0 01.77.09.46.46 0 01.33.33l1.58 6.64c.22 1 .45 2 .68 3l.4-1.76.28-1.26 1.56-6.44c.09-.42.54-.62 1.34-.62h.22c.77 0 1.19.19 1.19.54zM369.73 352.3a1.6 1.6 0 01.14.76v.62a1.63 1.63 0 01-.14.76.5.5 0 01-.46.24h-5v2.9h4.5a.5.5 0 01.46.24 1.6 1.6 0 01.14.76v.62a1.63 1.63 0 01-.14.76.5.5 0 01-.46.24h-4.5v3.24h5.06a.5.5 0 01.46.24 1.6 1.6 0 01.14.76v.62a1.63 1.63 0 01-.14.76.5.5 0 01-.46.24H362a.85.85 0 01-.61-.19.83.83 0 01-.19-.61v-12.4a.69.69 0 01.8-.8h7.32a.5.5 0 01.41.24zM387.41 353a3.17 3.17 0 011.14 2.6 3.09 3.09 0 01-.61 1.83 3.67 3.67 0 01-1.55 1.21v.08a3.39 3.39 0 012.7 3.28 3.73 3.73 0 01-1.25 3 5.74 5.74 0 01-3.75 1.05h-4.24a.85.85 0 01-.61-.19.83.83 0 01-.19-.61v-12.4a.69.69 0 01.8-.8h4a5.58 5.58 0 013.56.95zm-5.26 1.66v3h1.38a2.06 2.06 0 001.37-.42 1.38 1.38 0 00.49-1.08c0-1-.61-1.48-1.82-1.48zm0 5.6v3.18h2a2 2 0 001.36-.42 1.51 1.51 0 00.48-1.2 1.34 1.34 0 00-.56-1.17 2.8 2.8 0 00-1.6-.39zM457 236.9a4.6 4.6 0 011.3.49c.34.2.5.41.5.64a2 2 0 01-.33.93c-.22.38-.42.57-.61.57a2.13 2.13 0 01-.38-.14 6.14 6.14 0 00-.88-.33 3.9 3.9 0 00-1.1-.13 2.47 2.47 0 00-1.6.43 1.4 1.4 0 00-.52 1.11 1.49 1.49 0 00.3 1 2.28 2.28 0 00.74.6c.3.15.73.33 1.3.56a13.88 13.88 0 011.9.89 3.75 3.75 0 011.27 1.24 3.66 3.66 0 01.53 2.07 3.82 3.82 0 01-1.28 3.15 4.89 4.89 0 01-3.22 1.05 9.26 9.26 0 01-2.33-.27 5.28 5.28 0 01-1.6-.66c-.38-.26-.57-.5-.57-.71a1.49 1.49 0 01.19-.62 3.8 3.8 0 01.44-.64c.17-.19.31-.28.43-.28a1.43 1.43 0 01.48.2 8.09 8.09 0 001.22.55 4.33 4.33 0 001.42.21 2.57 2.57 0 001.52-.43 1.47 1.47 0 00.62-1.31 1.34 1.34 0 00-.32-.92 2.62 2.62 0 00-.79-.63 14.31 14.31 0 00-1.33-.61l-.62-.26a8.72 8.72 0 01-1.54-.85 3.62 3.62 0 01-1-1.21 4.07 4.07 0 01-.41-1.92 3.62 3.62 0 01.63-2.15 3.82 3.82 0 011.68-1.33 6 6 0 012.33-.44 6.92 6.92 0 011.63.15zM474.21 237.19l4.54 13a1 1 0 01.06.32c0 .27-.32.4-1 .4h-.62c-.57 0-.9-.13-1-.38l-.94-2.74h-5.14l-.92 2.74c-.09.25-.38.38-.88.38h-.54c-.73 0-1.1-.13-1.1-.4a2.52 2.52 0 01.08-.34l4.52-13c.1-.25.44-.38 1-.38h.88c.64.02.97.15 1.06.4zm-1.5 2.66c0 .07 0 .23-.09.5a2.88 2.88 0 01-.21.74l-1.5 4.44h3.64l-1.48-4.44a6.38 6.38 0 01-.28-1.24zM489.87 237.37v11.26h4.84a.43.43 0 01.4.2 1.33 1.33 0 01.12.66v.5a1.33 1.33 0 01-.12.66.43.43 0 01-.4.2H488a.81.81 0 01-.56-.17.73.73 0 01-.18-.55v-12.76c0-.37.36-.56 1.06-.56h.48c.72 0 1.07.19 1.07.56zM513.48 237.44a2.66 2.66 0 01.23 1 .34.34 0 010 .18l-7.24 10h6.74a.42.42 0 01.4.21 1.4 1.4 0 01.12.67v.5a1.4 1.4 0 01-.12.67.42.42 0 01-.4.21h-9.7c-.14 0-.29-.19-.45-.56a2.65 2.65 0 01-.23-1 .93.93 0 010-.22l7.26-10h-6.16a.46.46 0 01-.41-.21 1.38 1.38 0 01-.13-.67v-.46a1.38 1.38 0 01.13-.67.46.46 0 01.41-.21h9.14c.12-.03.26.17.41.56zM530.9 237.8a3.17 3.17 0 011.15 2.59 3 3 0 01-.63 1.85 3.37 3.37 0 01-1.53 1.19v.08a3.35 3.35 0 011.2.55 3.84 3.84 0 011.09 1.14 2.94 2.94 0 01.45 1.61 3.62 3.62 0 01-1.28 3 5.94 5.94 0 01-3.8 1h-3.94a.81.81 0 01-.56-.17.73.73 0 01-.18-.55v-12.52a.73.73 0 01.18-.55.81.81 0 01.56-.17h3.82a5.36 5.36 0 013.47.95zm-5.43 1.25v3.54h1.72a2.38 2.38 0 001.6-.51 1.62 1.62 0 00.6-1.29 1.57 1.57 0 00-.54-1.31 2.62 2.62 0 00-1.66-.43zm0 5.76v3.82h2.32a2.26 2.26 0 001.59-.52 1.86 1.86 0 00.57-1.44 1.61 1.61 0 00-.64-1.38 3 3 0 00-1.86-.48zM552.75 237.37v8.88a4.28 4.28 0 01-1.49 3.5 7.72 7.72 0 01-8.39 0 4.33 4.33 0 01-1.48-3.5v-8.88c0-.37.36-.56 1.06-.56h.48c.71 0 1.06.19 1.06.56v8.76a2.38 2.38 0 00.87 1.9 3.67 3.67 0 004.42 0 2.38 2.38 0 00.87-1.9v-8.76c0-.37.36-.56 1.06-.56h.48c.71 0 1.06.19 1.06.56zM570.72 237.77a3.66 3.66 0 01.59 4.76 3.72 3.72 0 01-1.7 1.26v.08a1.82 1.82 0 01.84.71 5.84 5.84 0 01.72 1.37l1.68 4.22a1.16 1.16 0 01.1.34c0 .25-.36.38-1.08.38h-.58c-.6 0-.94-.13-1-.38l-1.56-3.92a2.47 2.47 0 00-.85-1.14 2.83 2.83 0 00-1.51-.32h-1.16v5.2c0 .37-.35.56-1.06.56h-.48c-.7 0-1.06-.19-1.06-.56v-12.76a.73.73 0 01.18-.55.81.81 0 01.56-.17H567a6.12 6.12 0 013.72.92zm-5.55 1.3v3.8h2.18a1.78 1.78 0 001.34-.58 1.92 1.92 0 00.56-1.4 1.66 1.66 0 00-.55-1.35 2.22 2.22 0 00-1.49-.47zM589.47 236.89a6.11 6.11 0 011.59.49c.42.21.63.43.63.67a2.06 2.06 0 01-.39 1c-.26.41-.48.62-.67.62a2.81 2.81 0 01-.51-.21 6.44 6.44 0 00-1.08-.37 5.85 5.85 0 00-1.47-.16 3.53 3.53 0 00-3 1.22 6 6 0 00-.93 3.66q0 5 3.8 5a9 9 0 001.94-.18v-3.08h-2a.43.43 0 01-.4-.21 1.36 1.36 0 01-.12-.65v-.52a1.36 1.36 0 01.12-.65.43.43 0 01.4-.21h3.86a.62.62 0 01.72.74v5.46c0 .57-.47 1-1.41 1.19a14 14 0 01-3.17.33 6.26 6.26 0 01-4.84-1.74q-1.61-1.74-1.6-5.38 0-7.16 6.62-7.16a10.13 10.13 0 011.91.14z" transform="translate(-3.99 -232.08)"/></svg>